<?xml version="1.0" encoding="UTF-8" standalone="no"?>
<!-- Created with Inkscape (http://www.inkscape.org/) -->

<svg
   xmlns:dc="http://purl.org/dc/elements/1.1/"
   xmlns:cc="http://creativecommons.org/ns#"
   xmlns:rdf="http://www.w3.org/1999/02/22-rdf-syntax-ns#"
   xmlns:svg="http://www.w3.org/2000/svg"
   xmlns="http://www.w3.org/2000/svg"
   xmlns:sodipodi="http://sodipodi.sourceforge.net/DTD/sodipodi-0.dtd"
   xmlns:inkscape="http://www.inkscape.org/namespaces/inkscape"
   width="744.09448"
   height="1052.3622"
   id="svg4136"
   version="1.1"
   inkscape:version="0.91 r13725"
   viewBox="0 0 744.09448 1052.3622"
   sodipodi:docname="CorporealityLogo.svg">
  <defs
     id="defs4138" />
  <sodipodi:namedview
     id="base"
     pagecolor="#ffffff"
     bordercolor="#ffffff"
     borderopacity="0.0"
     inkscape:pageopacity="0.0"
     inkscape:pageshadow="0"
     inkscape:zoom="0.21459759"
     inkscape:cx="929.99208"
     inkscape:cy="921.52873"
     inkscape:document-units="px"
     inkscape:current-layer="g5023"
     showgrid="false"
     inkscape:window-width="1920"
     inkscape:window-height="1017"
     inkscape:window-x="-8"
     inkscape:window-y="-8"
     inkscape:window-maximized="1" />
  <metadata
     id="metadata4141">
    <rdf:RDF>
      <cc:Work
         rdf:about="">
        <dc:format>image/svg+xml</dc:format>
        <dc:type
           rdf:resource="http://purl.org/dc/dcmitype/StillImage" />
      </cc:Work>
    </rdf:RDF>
  </metadata>
  <g
     inkscape:label="Ship Vector Base"
     inkscape:groupmode="layer"
     id="layer1"
     sodipodi:insensitive="true"
     style="display:none">
    <path
       id="path5005-6"
       style="fill:#000000;fill-opacity:1;fill-rule:evenodd;stroke:none;stroke-width:1px;stroke-linecap:butt;stroke-linejoin:miter;stroke-opacity:1"
       d="m -38.561028,-401.7481 c 0,0 21.2053,8.48212 28.2737,19.79161 7.0684999,11.30949 14.1368999,24.03267 14.1368999,24.03267 l 97.5442981,467.93015 4.2411,-989.58037 7.0684,-12.7232 c 0,0 -1.4137,-4.2411 7.0684,0 8.4821,4.241 163.9876,147.02335 163.9876,147.02335 0,0 7.0685,5.65475 11.3095,14.13687 4.2411,8.48212 180.9519,769.045365 180.9519,769.045365 l 18.3779,0 223.3624,138.541285 c 0,0 14.1369,7.0684 16.9643,16.9642 2.8273,9.8958 65.0295,424.1059 65.0295,424.1059 0,0 5.6548,19.7916 -1.4136,33.9285 -7.0685,14.1369 -19.7916,25.4463 -19.7916,25.4463 l -230.4309,241.74042 c 0,0 -25.4464,28.2737 -57.9611,77.7527 -32.5148,49.47905 -65.0296,113.09495 -65.0296,113.09495 0,0 -5.6548,4.241 -16.9643,11.3094 -11.3094,7.0685 -221.9487,161.1604 -221.9487,161.1604 0,0 -8.2411,8.4821 -25.2053,12.7232 -16.9642,4.241 -39.8243,4.241 -45.479,11.3095 -5.6548,7.0684 -15.550598,14.1368 -22.618998,21.2053 -7.0684,7.0684 -16.9642,12.7231 -16.9642,12.7231 m 0,0 -274.229902,0 c 0,0 -9.8958,-5.6547 -16.9642,-12.7231 -7.0685,-7.0685 -16.9643,-14.1369 -22.619,-21.2053 -5.6547,-7.0685 -28.5148,-7.0685 -45.479,-11.3095 -16.9643,-4.2411 -25.2053,-12.7232 -25.2053,-12.7232 0,0 -210.6393,-154.0919 -221.9488,-161.1604 -11.3095,-7.0684 -16.9642,-11.3094 -16.9642,-11.3094 0,0 -32.5148,-63.6159 -65.0296,-113.09495 -32.5148,-49.479 -57.9611,-77.7527 -57.9611,-77.7527 L -900.88446,676.89458 c 0,0 -12.7231,-11.30949 -19.7916,-25.44635 -7.0684,-14.13686 -1.4136,-33.92847 -1.4136,-33.92847 0,0 62.2022,-414.2101 65.0295,-424.10591 2.8274,-9.8958 16.96435,-16.96423 16.96435,-16.96423 l 223.36238,-138.541275 18.3779,0 c 0,0 176.7108,-760.563245 180.9518,-769.045365 4.2411,-8.48212 11.3095,-14.13687 11.3095,-14.13687 0,0 155.5055,-142.78235 163.9876,-147.02335 8.4822,-4.2411 7.0685,0 7.0685,0 l 7.0684,12.7232 4.2411,989.5804 97.5443,-467.93018 c 0,0 7.0685,-12.72318 14.1369,-24.03267 7.0684,-11.30949 28.273702,-19.79161 28.273702,-19.79161 l 45.2127,0"
       inkscape:connector-curvature="0"
       sodipodi:nodetypes="csccccscscccscsccscscsssccsccccscscccscsccscscsssc" />
  </g>
  <g
     id="g5023"
     inkscape:groupmode="layer"
     inkscape:label="Logo"
     style="display:inline">
    <path
       id="rect5245-5-8-0-4-9-7"
       style="fill:#000000;fill-opacity:1;stroke:none;stroke-width:2;stroke-miterlimit:4;stroke-dasharray:none;stroke-opacity:1"
       d="m 1352.3055,-561.67662 c -0.9706,0 -1.9272,0.0487 -2.8749,0.11496 l -18.1591,0 c -17.169,0 -30.9909,13.82204 -30.9909,30.99107 l 0,374.10215 c 0,17.16905 13.8219,30.99107 30.9909,30.99107 l 44.2774,0 c 17.169,0 30.9911,-13.82202 30.9911,-30.99107 l 0,-108.48691 29.4234,-29.42335 68.8582,0 0,106.91919 c 0,17.16904 13.8221,30.99107 30.9912,30.99107 l 44.277,0 c 17.1691,0 30.9911,-13.82203 30.9911,-30.99107 l 0,-142.00203 c 2.2115,-4.06775 4.212,-8.47215 6.1923,-12.9533 l 37.1893,-84.14803 0,-104.00772 c 0,-17.16903 -13.822,-30.99107 -30.991,-30.99107 l -18.1528,0 c -0.9476,-0.0665 -1.9044,-0.11496 -2.8753,-0.11496 l -250.1379,0 z m 83.6579,81.35153 112.2457,0 0,53.76223 -22.4684,50.83264 -119.2007,0 0,-75.1715 29.4234,-29.42337 z m -567.11851,-81.3515 c -0.97059,0 -1.92727,0.0488 -2.87502,0.11497 l -18.1588,0 c -17.16913,0 -30.99119,13.82201 -30.99119,30.99106 l 0,374.10217 c 0,17.16903 13.82206,30.99105 30.99119,30.99105 l 21.03382,0 23.24336,0 226.89465,0 21.028,0 c 17.169,0 30.991,-13.82202 30.991,-30.99105 l 0,-374.10217 c 0,-17.16905 -13.822,-30.99106 -30.991,-30.99106 l -18.1528,0 c -0.9476,-0.0665 -1.9043,-0.11497 -2.8752,-0.11497 l -250.13801,0 z m 83.65795,81.35154 112.24556,0 0,273.49619 -141.66907,0 0,-244.07283 29.42351,-29.42336 z m 877.06506,-81.35154 c -0.9706,0 -1.9272,0.0488 -2.8751,0.11497 l -18.1587,0 c -17.1692,0 -30.9911,13.82201 -30.9911,30.99106 l 0,374.10217 c 0,17.16903 13.8219,30.99105 30.9911,30.99105 l 21.0338,0 23.2434,0 192.8044,0 c 17.169,0 30.991,-10.58246 30.991,-23.72754 l 0,-33.89647 c 0,-13.14505 -13.822,-23.72754 -30.991,-23.72754 l -161.8134,0 0,-58.12641 29.4235,-29.42336 166.4801,0 c 17.169,0 30.991,-10.5825 30.991,-23.72754 l 0,-33.89647 c 0,-13.14508 -13.822,-23.72755 -30.991,-23.72755 l -195.9036,0 0,-75.1715 29.4235,-29.42337 166.4801,0 c 17.169,0 30.991,-10.58245 30.991,-23.72754 l 0,-33.89647 c 0,-13.14504 -13.822,-23.72752 -30.991,-23.72752 l -250.138,0 z m -1425.5889,-3e-5 c -0.97081,0 -1.9275,0.0487 -2.87514,0.11496 l -18.15902,0 c -17.16891,0 -30.99097,13.82204 -30.99097,30.99107 l 0,374.10215 c 0,17.16905 13.82206,30.99107 30.99097,30.99107 l 44.27729,0 c 17.16925,0 30.99119,-13.82202 30.99119,-30.99107 l 0,-108.48691 29.42353,-29.42335 166.47994,0 21.02808,0 c 17.16902,0 30.99097,-13.82201 30.99097,-30.99107 l 0,-205.20082 c 0,-17.16903 -13.82195,-30.99107 -30.99097,-30.99107 l -18.15273,0 c -0.94764,-0.0665 -1.90432,-0.11496 -2.87535,-0.11496 l -250.13779,0 z m 83.65785,81.35153 112.24562,0 0,104.59487 -141.66915,0 0,-75.1715 29.42353,-29.42337 z m -560.9205,-81.35153 c -0.97058,0 -1.92715,0.0487 -2.8749,0.11496 l -18.15904,0 c -17.169,0 -30.99106,13.82204 -30.99106,30.99107 l 0,374.10215 c 0,17.16905 13.82206,30.99107 30.99106,30.99107 l 44.277417,0 c 17.168909,0 30.990957,-13.82202 30.990957,-30.99107 l 0,-108.48691 29.423637,-29.42335 68.858033,0 0,106.91919 c 0,17.16904 13.821949,30.99107 30.991076,30.99107 l 44.2773,0 c 17.16891,0 30.99097,-13.82203 30.99097,-30.99107 l 0,-142.00203 c 2.21162,-4.06775 4.21205,-8.47215 6.19241,-12.9533 l 37.18922,-84.14803 0,-104.00772 c 0,-17.16903 -13.82195,-30.99107 -30.99107,-30.99107 l -18.15275,0 c -0.94774,-0.0665 -1.90443,-0.11496 -2.87512,-0.11496 l -250.13814,0 z m 83.658071,81.35153 112.245519,0 0,53.76223 -22.46853,50.83264 -119.200626,0 0,-75.1715 29.423637,-29.42337 z M 3816.7615,-561.56158 c -17.169,0 -30.9911,13.82201 -30.9911,30.99105 l 0,124.98724 43.3875,125.15668 c 5.6237,16.22195 13.8221,30.98502 30.9911,30.98502 l 21.0277,0 23.2432,0 22.1965,0 -23.0862,92.97927 c -5.3983,16.2983 13.822,30.98502 30.9912,30.98502 l 44.2713,0 c 17.1691,0 26.8537,-14.32792 30.9911,-30.99107 l 43.3874,-174.73636 0,-199.3658 c -0.5689,-17.15961 -13.8219,-30.99105 -30.991,-30.99105 l -44.2713,0 c -17.169,0 -30.9912,13.82201 -30.9912,30.99105 l 0,199.3658 -0.1021,0.4116 -28.8664,0 -25.9249,-74.79016 0,-124.98724 c 0,-17.16904 -13.8221,-30.99105 -30.9911,-30.99105 l -44.271,0 z m -421.4848,-0.11497 c -17.1691,0 -30.991,10.58246 -30.991,23.72753 l 0,33.89649 c 0,13.14505 13.8219,23.72755 30.991,23.72755 l 71.9455,0 0,323.85666 c 0,17.16904 13.822,30.99106 30.991,30.99106 l 44.2711,0 c 17.169,0 30.9911,-13.82202 30.9911,-30.99106 l 0,-291.99398 31.8629,-31.86268 40.0826,0 c 17.169,0 30.991,-10.5825 30.991,-23.72755 l 0,-33.89649 c 0,-13.14507 -13.822,-23.72753 -30.991,-23.72753 l -250.1442,0 z m -3952.0209,0 c -0.9707,0 -1.92739,0.0487 -2.87514,0.11497 l -18.1589,0 c -17.16888,0 -30.99102,13.82201 -30.99102,30.99105 l 0,374.10216 c 0,17.16904 13.82214,30.99107 30.99102,30.99107 l 21.03404,0 23.24324,0 226.89466,0 21.02809,0 c 17.16891,0 30.99096,-13.82203 30.99096,-30.99107 l 0,-374.10216 c 0,-17.16904 -13.82205,-30.99105 -30.99096,-30.99105 l -18.15273,0 c -0.94775,-0.0662 -1.90444,-0.11497 -2.87536,-0.11497 l -250.1379,0 z m 83.65784,81.35157 112.24574,0 0,273.49617 -141.66915,0 0,-244.07283 29.42341,-29.42334 z m 3236.14526,-81.23643 c -17.169,0 -30.9911,13.82202 -30.9911,30.99107 l 0,374.10216 c 0,17.16904 13.8221,30.99104 30.9911,30.99104 l 21.034,0 23.2433,0 192.8043,0 c 17.1692,0 30.9912,-10.58244 30.9912,-23.72753 l 0,-33.89647 c 0,-13.14506 -13.822,-23.72755 -30.9912,-23.72755 l -161.8132,0 0,-323.74165 c 0,-17.16905 -13.8221,-30.99107 -30.9911,-30.99107 l -44.2773,0 z m 402.8848,-0.002 44.2731,0 c 17.169,0 30.9909,13.82201 30.9909,30.99106 l 0,343.11538 c 0,17.16906 -13.8219,30.99109 -30.9909,30.99109 l -44.2731,0 c -17.169,0 -30.9911,-13.82203 -30.9911,-30.99109 l 0,-343.11538 c 0,-17.16905 13.8221,-30.99106 30.9911,-30.99106 z m -4181.3557,-0.113 c -0.9707,0 -1.9274,0.0487 -2.875,0.11497 l -18.1588,0 c -17.1692,0 -30.9913,13.82201 -30.9913,30.99105 l 0,374.10216 c 0,17.16905 13.8221,30.99106 30.9913,30.99106 l 21.0338,0 23.2432,0 192.8045,0 c 17.169,0 30.99101,-10.58246 30.99101,-23.72753 l 0,-33.89648 c 0,-13.14506 -13.82201,-23.72755 -30.99101,-23.72755 l -161.81327,0 0,-244.07283 29.42355,-29.42334 166.47995,0 c 17.16913,0 30.99114,-10.58246 30.99114,-23.72754 l 0,-33.89647 c 0,-13.14506 -13.82201,-23.72755 -30.99114,-23.72755 l -250.13793,0 z m 3316.0442,0 c -0.9707,0 -1.9274,0.0487 -2.875,0.11497 l -18.159,0 c -17.169,0 -30.991,13.82201 -30.991,30.99105 l 0,374.10216 c 0,17.16905 13.822,30.99106 30.991,30.99106 l 44.2772,0 c 17.1692,0 30.9912,-13.82201 30.9912,-30.99106 l 0,-108.48693 29.4235,-29.42331 112.2456,0 0,106.91916 c 0,17.16905 13.822,30.99108 30.991,30.99108 l 44.2774,0 c 17.169,0 30.9911,-13.82203 30.9911,-30.99108 l 0,-343.11108 c 0,-17.16904 -13.8221,-30.99105 -30.9911,-30.99105 l -18.1586,0 c -0.9478,-0.0665 -1.9044,-0.11497 -2.8754,-0.11497 l -250.1379,0 z m 83.6579,81.35156 112.2456,0 0,104.59487 -141.6691,0 0,-75.1715 29.4235,-29.42337 z M -1574.7513,66.642145 c 5.8345,0.27775 11.6872,0.42055 17.5547,0.42055 97.8624,0 191.7412,-38.88612 260.9404,-108.085431 59.5156,-59.515514 96.6076,-137.285654 105.8237,-220.145544 l -46.2445,-3.53179 c -8.3508,71.86401 -40.678,139.23589 -92.3493,190.907088 -60.5208,60.520712 -142.5806,94.512025 -228.1699,94.512025 -5.8705,3e-5 -11.7235,-0.16518 -17.5551,-0.482621 l 0,46.405723 z m -351.049,-351.049145 46.4063,-7.6e-4 c -0.3175,-5.83129 -0.4833,-11.6842 -0.4833,-17.55447 0,-85.58923 33.9908,-167.64971 94.5114,-228.17043 60.5208,-60.52069 142.5806,-94.51073 228.1697,-94.51073 48.7021,-3e-5 96.2591,11.01041 139.3574,31.64694 l 27.2026,-38.25731 c -51.1684,-25.87909 -108.1538,-39.73395 -166.56,-39.73393 -97.8625,0 -191.7406,38.88549 -260.9398,108.08482 -69.1995,69.19934 -108.0856,163.07796 -108.0856,260.94061 0,5.86749 0.1429,11.72078 0.4213,17.55514 z m 691.2079,-24.41318 46.4005,3.54327 c -0.8674,-96.66547 -39.6468,-189.20824 -108.0643,-257.62582 -9.0867,-9.08677 -18.6025,-17.6451 -28.4932,-25.66703 l -26.9167,37.85471 c 7.8341,6.47343 15.3927,13.33548 22.6398,20.58253 58.9021,58.90217 92.6697,138.20833 94.4339,221.31234 z m -551.3737,233.578074 -44.979,77.111322 -258.4129,226.280574 226.2806,-258.412928 z m 98.4517,40.875293 -44.979,77.111348 -258.413,226.280565 226.2807,-258.41293 z m -139.3269,-139.326917 -44.9791,77.111332 -258.4128,226.280578 226.2805,-258.41293 z m 363.5046,-216.08361 c 0,0 2.2777,5.31472 1.5185,8.60478 -0.7593,3.29009 -1.7715,6.83323 -1.7715,6.83323 l -66.3077,101.23288 177.9169,-176.39831 3.5431,-1.01232 c 0,0 0.5061,-1.01235 1.2655,1.2654 0.7593,2.27773 3.037,55.67807 3.037,55.67807 0,0 0.253,2.27776 -0.5062,4.55549 -0.7591,2.27776 -105.2822,170.07127 -105.2822,170.07127 l 3.29,3.29007 15.185,64.78904 c 0,0 1.2654,3.79625 0,6.07398 -1.2653,2.27773 -64.283,87.566447 -64.283,87.566447 0,0 -2.5307,4.555503 -6.3269,5.820919 -3.7963,1.265402 -8.0986,1.012312 -8.0986,1.012312 l -84.5297,2.02467 c 0,0 -9.617,0.506149 -24.2958,3.543161 -14.6787,3.036981 -31.8884,8.604781 -31.8884,8.604781 0,0 -1.7716,-0.253104 -5.0615,-1.012357 -3.2901,-0.759208 -68.5854,-10.88248 -68.5854,-10.88248 0,0 -2.9938,0.04316 -6.79,-2.234595 -3.7964,-2.277744 -7.8888,-6.370217 -10.1665,-6.117128 -2.2776,0.253074 -5.3147,-0.253089 -7.8456,-0.253074 -2.5308,0 -5.3146,-0.759253 -5.3146,-0.759253 m 0,0 -49.0935,-49.093453 c 0,0 -0.7592,-2.78389 -0.7592,-5.31469 0,-2.53086 -0.5062,-5.56783 -0.253,-7.84556 0.253,-2.27773 -3.8395,-6.37022 -6.1174,-10.16644 -2.2775,-3.79626 -2.2343,-6.79006 -2.2343,-6.79006 0,0 -10.1233,-65.29524 -10.8826,-68.58533 -0.7594,-3.29007 -1.0124,-5.06162 -1.0124,-5.06162 0,0 5.5679,-17.20959 8.6049,-31.88839 3.0368,-14.67877 3.543,-24.29586 3.543,-24.29586 l 2.0247,-84.52948 c 0,0 -0.253,-4.30239 1.0124,-8.09865 1.2653,-3.79621 5.8208,-6.32702 5.8208,-6.32702 0,0 85.2887,-63.01749 87.5665,-64.28292 2.2779,-1.26539 6.074,3e-5 6.074,3e-5 l 64.7891,15.18492 3.29,3.29006 c 0,0 167.7935,-104.52295 170.0712,-105.28222 2.2778,-0.75923 4.5555,-0.50616 4.5555,-0.50616 0,0 53.4003,2.27774 55.6782,3.03698 2.2777,0.75927 1.2654,1.26543 1.2654,1.26543 l -1.0125,3.54315 -176.3981,177.91682 101.2329,-66.30757 c 0,0 3.5431,-1.01231 6.8332,-1.77156 3.29,-0.75926 8.6047,1.51849 8.6047,1.51849 l 8.0941,8.09412"
       inkscape:connector-curvature="0" />
    <path
       id="rect5185-5-2-4"
       style="display:inline;fill:#000000;fill-opacity:1;stroke:none;stroke-width:2;stroke-miterlimit:4;stroke-dasharray:none;stroke-opacity:1"
       d="m 4297.6759,777.75998 7.5862,0 0,102.5174 -7.5862,0 z m 55.0518,47.4656 0,7.5862 -102.5174,0 0,-7.5862 z m -55.0518,-2107.46558 7.5862,0 0,102.5174 -7.5862,0 z m 55.0518,47.4656 0,7.5862 -102.5174,0 0,-7.5862 z M -2382.3241,777.76 l 7.5862,0 0,102.5174 -7.5862,0 z m 55.0518,47.4656 0,7.5862 -102.5174,0 0,-7.5862 z m -55.0518,-2107.4656 7.5862,0 0,102.5174 -7.5862,0 z m 55.0518,47.4656 0,7.5862 -102.5174,0 0,-7.5862 z" />
  </g>
</svg>
